# xmcd
#
# Track frame offsets:
#	150
#	16887
#	34581
#	52082
#	67043
#	83097
#	99143
#	111230
#	128778
#	143653
#	157495
#	178384
#	200144
#	216575
#	244095
#	264351
#	280020
#	293840
#	316634
#	342799
#
# Disc length: 4778 seconds
#
# Revision: 1
# Processed by: cddbd v1.5.2PL0 Copyright (c) Steve Scherf et al.
# Submitted via: audiograbber 1.83.01
#
DISCID=2e12a814
DTITLE=div - Veronica Album Top 1000 Allertijden 2011 [CD4)
DYEAR=1900
DGENRE=
TTITLE0=Duffy - Mercy
TTITLE1=Orchestral Manoeuvres In The Dark - Locomotion
TTITLE2=Propaganda - P. Machinery
TTITLE3=Simply Red - Sunrise
TTITLE4=James Morrison - You Give Me Something
TTITLE5=Skunk Anansie - Weak
TTITLE6=Soft Cell - Tainted Love
TTITLE7=Alison Moyet - Love Ressurection
TTITLE8=Shakira - Whenever Wherever
TTITLE9=Shocking Blue - Never Mary A Railroad Man
TTITLE10=Savage Garden - Truly Madly Deeply
TTITLE11=Pointer Sisters - Automatic
TTITLE12=Cardigans - My Favourite Game
TTITLE13=Jamiroquai - Too Young To Die
TTITLE14=Air - All I Need
TTITLE15=Toontje Lager - Net Als In De Film
TTITLE16=Alain Clark - Blow Me Away
TTITLE17=Gerry Rafferty - City To City
TTITLE18=Neneh Cherry - Buffalo Stance
TTITLE19=Beastie Boys - Fight For Your Right
EXTD=pop
EXTT0=
EXTT1=
EXTT2=
EXTT3=
EXTT4=
EXTT5=
EXTT6=
EXTT7=
EXTT8=
EXTT9=
EXTT10=
EXTT11=
EXTT12=
EXTT13=
EXTT14=
EXTT15=
EXTT16=
EXTT17=
EXTT18=
EXTT19=
PLAYORDER=
